<svg id="_0058_fishing" xmlns="http://www.w3.org/2000/svg" viewBox="0 0 500 500" data-imageid="fishing-100" imageName="Fishing" class="illustrations_image" style="width: 151px;"><defs><style>.cls-1_fishing-100{fill:#fff;}.cls-2_fishing-100{fill:#f4a28c;}.cls-3_fishing-100{opacity:.46;}.cls-3_fishing-100,.cls-4_fishing-100,.cls-5_fishing-100,.cls-6_fishing-100,.cls-7_fishing-100,.cls-8_fishing-100{fill:none;}.cls-4_fishing-100{opacity:.18;}.cls-9_fishing-100{fill:#ce8172;}.cls-5_fishing-100{opacity:.03;}.cls-6_fishing-100{opacity:.08;}.cls-7_fishing-100{opacity:.5;}.cls-8_fishing-100{opacity:.31;}.cls-10_fishing-100{fill:#24285b;}.cls-11_fishing-100{fill:#000001;}.cls-12_fishing-100{fill:#ffd200;}.cls-13_fishing-100{fill:#68e1fd;}</style></defs><g id="sd_fishing-100" class="cls-5_fishing-100"><ellipse class="cls-11_fishing-100" cx="250.31" cy="450.39" rx="184.96" ry="26.91"/></g><g id="fisher_fishing-100"><path class="cls-10_fishing-100" d="m441.72,288.07l-1.56-.7c.33-.74,32.67-74.28-20.7-122.8-33.84-30.76-19.55-46.76-6.93-60.87,7.98-8.92,15.51-17.35,10.57-28.72-12.74-29.35-63.82-11.87-64.33-11.69l-.56-1.61c.53-.19,53.1-18.19,66.46,12.62,5.37,12.38-2.52,21.2-10.87,30.54-12.68,14.18-25.78,28.84,6.81,58.47,54.3,49.36,21.45,124.02,21.11,124.77Z"/><circle class="cls-12_fishing-100" cx="63.99" cy="120.54" r="13.79"/><g class="cls-4_fishing-100"><circle class="cls-11_fishing-100" cx="63.99" cy="120.54" r="7.36"/></g><path class="cls-2_fishing-100" d="m89.15,132.21s-3.54-11.21,8.76-17.36c12.31-6.15,6.16,15.4,6.16,15.4l-14.92,1.96Z"/><rect class="cls-12_fishing-100" x="22.34" y="98.97" width="343.3" height="4.78" transform="translate(-18.23 47.82) rotate(-13.43)"/><path class="cls-13_fishing-100 targetColor" d="m162.68,130.97l-46.61,88.81-10.18-88.81-18.98,1.88s-34.51,124.06,17.72,141.67c52.23,17.6,103.86-103.94,103.86-103.94l-45.82-39.61Z" style="fill: rgb(104, 225, 253);"/><g class="cls-3_fishing-100"><path class="cls-1_fishing-100" d="m162.68,130.97l-46.61,88.81-10.18-88.81-18.98,1.88s-34.51,124.06,17.72,141.67c52.23,17.6,103.86-103.94,103.86-103.94l-45.82-39.61Z"/></g><polygon class="cls-2_fishing-100" points="268.91 358.04 277.94 423.5 289.65 423.5 289.65 359.59 268.91 358.04"/><path class="cls-2_fishing-100" d="m210.3,51.86s-1.89,13.04-.18,21.88c.69,3.59,4.22,5.96,7.79,5.22,4.44-.92,10.17-3.46,12.03-10.33l4.59-11.26s2.63-7.16-4.48-12.91c-7.11-5.76-19-.6-19.75,7.4Z"/><polygon class="cls-2_fishing-100" points="234.34 62.27 242.61 104.64 218.94 107.53 222.34 76.35 234.34 62.27"/><path class="cls-10_fishing-100" d="m236.35,51.66l-.75,16.91s-6.83,2.36-10.58-4.18c-3.75-6.54.69-12.03.69-12.03-5.67.72-9.89.49-12.18.24-1.37-.15-2.72-.45-3.96-1.03,0,0-5.69-6.02,1.14-7.9s27.27-5.66,25.64,8Z"/><path class="cls-2_fishing-100" d="m223.63,63.92s.39-5.06,4.17-4.45,3.27,7.92-1.94,8.31l-2.23-3.86Z"/><path class="cls-2_fishing-100" d="m209.53,60.14l-3.95,4.86c-.98,1.2-.37,3.01,1.13,3.38l4.97,1.23-2.15-9.47Z"/><g class="cls-8_fishing-100"><path class="cls-9_fishing-100" d="m222.24,77.23s4.9-1.46,7.26-4.63c0,0,2.66,9.07-8.24,13.56l.97-8.93Z"/></g><path class="cls-13_fishing-100 targetColor" d="m202.58,101.39s99.03-18.98,132.86,0c33.83,18.98-37.14,195.58-37.14,195.58l-104.31-3.3s-91.27-174.12,8.59-192.28Z" style="fill: rgb(104, 225, 253);"/><g class="cls-6_fishing-100"><path class="cls-11_fishing-100" d="m299.8,113.18s-36.84,29.3-13.85,70.45c15.8,28.29-6.77,99.98-50.85,111.33l63.2,2s25.92-70.17,31.53-91.62c5.61-21.44-30.03-92.17-30.03-92.17Z"/></g><path class="cls-12_fishing-100" d="m209.4,44.15l26.6,15.27s9.31-9.16,9.07-22.58c-.24-13.42-26.15-18.1-35.67,7.31Z"/><polygon class="cls-10_fishing-100" points="193.99 293.67 205.1 354.74 241.73 357.49 241.73 315.67 254.84 364.64 302.16 367.94 298.31 296.97 193.99 293.67"/><polygon class="cls-2_fishing-100" points="217.45 355.66 225.14 411.4 235.1 411.4 235.1 356.99 217.45 355.66"/><polygon class="cls-13_fishing-100 targetColor" points="217.45 394.45 241.73 397.75 245.08 446.17 205.1 457.72 224.73 434.06 217.45 394.45" style="fill: rgb(104, 225, 253);"/><polygon class="cls-13_fishing-100 targetColor" points="267.98 397.75 292.26 401.05 295.61 449.47 255.64 461.02 275.26 437.36 267.98 397.75" style="fill: rgb(104, 225, 253);"/><rect class="cls-10_fishing-100" x="18.65" y="131.66" width="50.34" height="14.44" transform="translate(-31.05 13.97) rotate(-13.43)"/><path class="cls-12_fishing-100" d="m412.88,353.19s-8.53-49.95,30.67-72.29c0,0,23.24,62.52-22.97,74.76l9.07,23.94-9.47-10.34c-3.47-3.79-8.77-5.31-13.72-3.95l-9.54,2.63,15.95-14.75Z"/><path class="cls-12_fishing-100" d="m418.24,309.44s-13.54,2.21-19.11,13.15c0,0,8.91-2.67,15.29-1.44s3.83-11.71,3.83-11.71Z"/><g class="cls-7_fishing-100"><path class="cls-1_fishing-100" d="m421.27,303.25s13.77,8.31,28,6.19c0,0-.48-15.32-5.72-28.54,0,0-14.36,7.28-22.28,22.35Z"/></g><path class="cls-13_fishing-100 targetColor" d="m294.83,134.78c-3.27-26.83,25.92-45.62,48.47-30.73,8.5,5.61,15.79,14.39,17.87,28.16,2.5,16.56,9.51,41.3,16.68,64.06,8.72,27.69-12.38,55.74-41.4,55.15l-80.81-1.65v-20.63l57.63-4.31c10.79-.81,16.78-12.89,10.85-21.94-11.57-17.66-26.37-44.21-29.28-68.1Z" style="fill: rgb(104, 225, 253);"/><g class="cls-3_fishing-100"><path class="cls-1_fishing-100" d="m294.83,134.78c-3.27-26.83,25.92-45.62,48.47-30.73,8.5,5.61,15.79,14.39,17.87,28.16,2.5,16.56,9.51,41.3,16.68,64.06,8.72,27.69-12.38,55.74-41.4,55.15l-80.81-1.65v-20.63l57.63-4.31c10.79-.81,16.78-12.89,10.85-21.94-11.57-17.66-26.37-44.21-29.28-68.1Z"/></g><path class="cls-12_fishing-100" d="m258.09,279.37l-4.91-.63c.03-.21,2.61-21.46-6.3-30.69-3.13-3.24-7.28-4.58-12.7-4.08-6.08.56-10.5,2.85-13.12,6.81-6.09,9.18-1.31,24.57-1.26,24.73l-4.72,1.5c-.23-.72-5.56-17.79,1.84-28.96,3.49-5.27,9.14-8.31,16.8-9.01,6.91-.65,12.53,1.24,16.72,5.58,10.56,10.95,7.77,33.78,7.64,34.75Z"/><g class="cls-7_fishing-100"><path class="cls-1_fishing-100" d="m258.09,279.37l-4.91-.63c.03-.21,2.61-21.46-6.3-30.69-3.13-3.24-7.28-4.58-12.7-4.08-6.08.56-10.5,2.85-13.12,6.81-6.09,9.18-1.31,24.57-1.26,24.73l-4.72,1.5c-.23-.72-5.56-17.79,1.84-28.96,3.49-5.27,9.14-8.31,16.8-9.01,6.91-.65,12.53,1.24,16.72,5.58,10.56,10.95,7.77,33.78,7.64,34.75Z"/></g><path class="cls-2_fishing-100" d="m255.64,234.91s-23.87-2.89-21.68,6.6c2.19,9.49,21.68,8.25,21.68,8.25v-14.85Z"/><rect class="cls-12_fishing-100" x="209.84" y="263.88" width="50.53" height="52.13"/></g></svg>