<svg version="1.1" id="Layer_1" xmlns="http://www.w3.org/2000/svg" xmlns:xlink="http://www.w3.org/1999/xlink" x="0px" y="0px" viewBox="0 0 500 500" style="width: 151px;" xml:space="preserve" data-imageid="fishing-40" imageName="Fishing" class="illustrations_image">
<style type="text/css">
	.st0_fishing-40{fill:#FFC9B0;}
	.st1_fishing-40{fill:#093F68;}
	.st2_fishing-40{fill:#68E1FD;}
	.st3_fishing-40{fill:#725858;}
	.st4_fishing-40{fill:#FFFFFF;}
	.st5_fishing-40{fill:#F56132;}
	.st6_fishing-40{fill:#FFBC0E;}
	.st7_fishing-40{fill:#DFEAEF;}
	.st8_fishing-40{fill:#70CC40;}
</style>
<g id="character_fishing-40">
	<path class="st0_fishing-40" d="M254.9,205.4c-2.3,1.2-4.1,3.2-5.1,5.6c-0.5,1.6-0.8,3.2-0.8,4.9c-0.2,3.8-0.2,7.7,1.2,11.2&#xA;&#9;&#9;c0.3,0.8,0.7,1.4,1.3,2c0.7,0.6,1.6,1,2.6,1.1c2.7,0.4,5.5-0.6,7.4-2.6c1.3-1.5,2.2-3.2,2.8-5c1.5-3.4,2.3-7.1,2.3-10.8&#xA;&#9;&#9;c-0.1-2.4-0.9-7.4-3.3-8.7C261.2,201.8,257,204.2,254.9,205.4z"/>
	<path class="st1_fishing-40" d="M255.3,232.1c-0.5,0-1,0-1.4-0.1c-1.3-0.1-2.5-0.7-3.5-1.5c-0.8-0.8-1.4-1.7-1.8-2.7c-1.6-3.9-1.6-8.3-1.4-12&#xA;&#9;&#9;c0-1.9,0.3-3.7,0.9-5.4c1.2-2.8,3.3-5.1,5.9-6.5l0,0c3.7-2.1,7.5-3.9,10.3-2.3c3.9,2.2,4.2,9.5,4.2,10.3c0,4-0.8,7.9-2.4,11.5&#xA;&#9;&#9;c-0.7,2.1-1.8,4-3.2,5.6C260.9,231,258.2,232.1,255.3,232.1z M255.9,207c-1.9,1-3.4,2.6-4.3,4.6c-0.5,1.4-0.7,2.9-0.7,4.3&#xA;&#9;&#9;c-0.2,3.3-0.2,7.2,1.1,10.4c0.2,0.5,0.5,1,0.9,1.4c0.5,0.4,1,0.6,1.6,0.6c2.1,0.3,4.3-0.5,5.8-2c1.1-1.3,1.9-2.8,2.5-4.4&#xA;&#9;&#9;c1.6-4.1,2.2-7.2,2.2-10s-1-6.4-2.4-7.2C262,204.5,260.5,204.4,255.9,207L255.9,207z"/>
	<path class="st1_fishing-40" d="M173.3,306.8c0,0,25.2,3.7,35.1-12l-27.2-37.1l-28.7,14L173.3,306.8z"/>
	<path class="st1_fishing-40" d="M180,309c-2.3,0-4.6-0.1-6.9-0.4c-0.5-0.1-1-0.4-1.3-0.9l-20.8-35c-0.3-0.4-0.3-1-0.2-1.5&#xA;&#9;&#9;c0.1-0.5,0.5-0.9,0.9-1.1l28.7-14c0.8-0.4,1.8-0.2,2.3,0.6l27.2,37.1c0.5,0.6,0.5,1.4,0.1,2.1C202.9,307.1,188.5,309,180,309z&#xA;&#9;&#9; M174.5,305c4.2,0.4,23.2,1.6,31.8-10.2L180.7,260l-25.5,12.5L174.5,305z"/>
	<path class="st1_fishing-40" d="M245,396c-2.6-11.5-10.4-44-14.6-55.5c-4.4-10-50.5-47.6-59.2-53.4l14.2-22.2c0.6,0.4,62,45.5,69.8,66.4&#xA;&#9;&#9;c5.7,15.5,15.2,57,15.6,58.8L245,396z"/>
	<path class="st1_fishing-40" d="M155.8,401.8L135,385.6c14.2-18.3,30.4-40.5,35.5-49.2c-2.8-7.4-12.8-26.4-20.9-43.6c-2.1-4.6,19.7-23,19.7-23&#xA;&#9;&#9;c27.9,58.7,28.1,63.9,28.3,66.8C197.9,341.6,198.2,346.9,155.8,401.8z"/>
	<path class="st2_fishing-40 targetColor" d="M234.8,220.4c-7.9,7.2-16.8,10.9-21.8,14.4c-4.8-4.6-9.2-9.5-13.2-14.8c-4.3-5.9-12.5-7.2-18.4-3&#xA;&#9;&#9;c-5.9,4.3-7.2,12.5-3,18.4c0.1,0.1,0.2,0.2,0.3,0.4c18.6,24.8,28.8,27,33.5,27c0.6,0,1.1,0,1.5-0.1c3.4-0.2,10.1-0.6,35.2-23.1&#xA;&#9;&#9;C243.8,232.2,239.5,228,234.8,220.4z" style="fill: rgb(104, 225, 253);"/>
	<path class="st1_fishing-40" d="M212.2,264.5c-9.6,0-21-9.1-34.9-27.7c-5-6.6-3.6-16,3-21c6.6-5,16-3.6,21,3l0,0c3.6,4.8,7.6,9.4,11.9,13.6&#xA;&#9;&#9;c1.4-0.9,3.1-1.8,4.9-2.9c4.6-2.6,10.3-5.9,15.5-10.6c0.4-0.4,1-0.5,1.5-0.4c0.5,0.1,1,0.4,1.3,0.9c2.4,3.7,5,7.3,7.8,10.8&#xA;&#9;&#9;c2,2.5,4,5.1,6.2,8.3c0.5,0.8,0.4,1.8-0.3,2.4c-25.6,22.9-32.6,23.3-36.3,23.6C213.3,264.5,212.8,264.5,212.2,264.5z M189.3,216.5&#xA;&#9;&#9;c-6.3,0-11.3,5.1-11.3,11.3c0,2.4,0.8,4.8,2.3,6.8c13,17.4,23.8,26.2,32,26.2c0.5,0,0.9,0,1.3,0c3.1-0.2,9.3-0.6,32.9-21.6&#xA;&#9;&#9;c-1.8-2.5-3.5-4.7-5.2-6.8c-2.3-2.9-4.6-5.8-6.9-9.3c-4.5,3.6-9.4,6.9-14.5,9.6c-2.3,1.3-4.3,2.4-5.9,3.5c-0.7,0.5-1.6,0.4-2.3-0.1&#xA;&#9;&#9;c-4.9-4.7-9.4-9.7-13.4-15.1C196.2,218.2,192.9,216.5,189.3,216.5L189.3,216.5z"/>
	<path class="st2_fishing-40 targetColor" d="M142.6,211.5l42.5-7.7c4.1-0.7,8,2,8.7,6.1l13.1,72.7l0,0l-57.3,10.3l0,0l-13.1-72.7&#xA;&#9;&#9;C135.9,216.1,138.6,212.2,142.6,211.5z" style="fill: rgb(104, 225, 253);"/>
	<path class="st1_fishing-40" d="M149.6,294.7c-0.9,0-1.7-0.6-1.8-1.5l-12-66.5c-1.5-8.5,4.1-16.6,12.6-18.2l30.1-5.4&#xA;&#9;&#9;c8.5-1.5,16.6,4.1,18.2,12.6l12,66.5c0.2,1-0.5,2-1.5,2.1L150,294.6C149.9,294.7,149.8,294.7,149.6,294.7z M181.4,206.5&#xA;&#9;&#9;c-0.7,0-1.4,0.1-2.1,0.2l-30.1,5.4c-6.5,1.2-10.8,7.4-9.7,13.9l11.6,64.7l53.7-9.7l-11.6-64.7C192.1,210.6,187.2,206.5,181.4,206.5&#xA;&#9;&#9;z"/>
	<polygon class="st1_fishing-40" points="174.4,216.7 184.5,286.6 197.7,284.2 186.1,214.1 &#9;"/>
	<path class="st1_fishing-40" d="M184.5,288.4c-0.4,0-0.8-0.1-1.1-0.3c-0.4-0.3-0.7-0.7-0.8-1.2l-10.2-69.9c-0.1-1,0.5-1.9,1.4-2.1l11.7-2.5&#xA;&#9;&#9;c1-0.2,2,0.4,2.2,1.4c0,0,0,0,0,0.1l11.6,70c0.2,1-0.5,2-1.4,2.1c0,0,0,0-0.1,0l-13.2,2.4C184.7,288.4,184.6,288.4,184.5,288.4z&#xA;&#9;&#9; M176.4,218.1l9.6,66.3l9.5-1.7l-11-66.4L176.4,218.1z"/>
	<path class="st0_fishing-40" d="M172.9,209.9l11.7-2.5l0,0l1.9,9c0.3,1.5-0.6,3-2.1,3.3c0,0,0,0,0,0l-6.3,1.4c-1.5,0.3-3-0.6-3.3-2.1&#xA;&#9;&#9;c0,0,0,0,0,0L172.9,209.9L172.9,209.9L172.9,209.9z"/>
	<path class="st1_fishing-40" d="M179.3,222.5c-3.3,0-6.1-2.3-6.8-5.5l-1.4-6.7c-0.2-1,0.4-2,1.4-2.2c0,0,0,0,0,0l11.7-2.5c1-0.2,2,0.4,2.2,1.4&#xA;&#9;&#9;c0,0,0,0,0,0l1.5,6.7c0.8,3.7-1.6,7.4-5.3,8.2l0,0l-1.8,0.4C180.3,222.5,179.8,222.5,179.3,222.5z M182.2,220.2L182.2,220.2z&#xA;&#9;&#9; M175.1,211.3l1.1,4.9c0.4,1.8,2.1,2.9,3.9,2.5l1.8-0.4c1.8-0.4,2.9-2.1,2.5-3.8c0,0,0,0,0,0l-1.1-4.9L175.1,211.3z"/>
	<ellipse transform="matrix(0.9775 -0.2112 0.2112 0.9775 -31.4792 46.5578)" class="st0_fishing-40" cx="202.3" cy="170.7" rx="9" ry="10"/>
	<path class="st1_fishing-40" d="M202.7,182.5c-5.1,0-9.8-3.9-11-9.5c-0.7-3-0.2-6.1,1.3-8.8c1.4-2.6,3.9-4.5,6.8-5.1&#xA;&#9;&#9;c5.8-1.2,11.7,2.9,13.1,9.3c0.7,3,0.2,6.1-1.3,8.8c-1.4,2.6-3.9,4.5-6.8,5.1C204.1,182.4,203.4,182.5,202.7,182.5z M201.9,162.5&#xA;&#9;&#9;c-0.4,0-0.9,0.1-1.3,0.1c-1.9,0.4-3.5,1.6-4.4,3.3c-1,1.9-1.3,4.1-0.9,6.2c0.9,4.4,4.9,7.3,8.7,6.5c1.9-0.4,3.5-1.6,4.4-3.3&#xA;&#9;&#9;c1-1.9,1.4-4.1,0.9-6.2l0,0C208.4,165.3,205.2,162.5,201.9,162.5L201.9,162.5z"/>
	<path class="st0_fishing-40" d="M129.5,160.1c1.6,9.9,3.8,20.5,8.8,28.8c8.6,14.3,25.6,25.9,40.7,22.6c12.2-2.4,21.9-11.8,24.6-24&#xA;&#9;&#9;c1.3-5.7,1.4-11.6,0.1-17.3l-6.5-30c0-0.1-15.3-0.2-15.3-0.2L129.5,160.1z"/>
	<path class="st1_fishing-40" d="M174,213.9c-12.1,0-27.4-7.6-37.3-24c-5.3-8.8-7.6-19.8-9.1-29.4c-0.1-0.9,0.4-1.7,1.2-2l52.5-20.1&#xA;&#9;&#9;c0.3-0.1,0.6-0.1,0.9-0.1c0.6,0,4.4,0.1,7.5,0.1c9,0.1,9,0.1,9.3,1.6l6.5,30c1.3,6,1.3,12.2-0.1,18.1c-2.9,12.8-13.1,22.7-26,25.3&#xA;&#9;&#9;C177.6,213.7,175.8,213.9,174,213.9z M131.5,161.3c1.4,8.9,3.6,18.8,8.4,26.6c7.8,12.9,24,24.9,38.7,21.8&#xA;&#9;&#9;c11.5-2.3,20.6-11.2,23.2-22.6c1.3-5.4,1.3-11,0.1-16.5l-6.2-28.6c-1.5,0-4,0-6.1-0.1c-3.7,0-5.9-0.1-7.2-0.2L131.5,161.3z&#xA;&#9;&#9; M181.9,140L181.9,140z"/>
	<path class="st3_fishing-40" d="M189.1,182.5c-4.2-0.5-9.9,1.1-14.9,5.1c-6.6,5.3-4.1,11.8-10.4,11c-4.5-0.5-8.7-2.4-12-5.5&#xA;&#9;&#9;c-4.1-4.1-4.5-10.6-5.9-16c-0.4-1.9-1.1-3.8-2.1-5.5c-1.9-2.6-5.2-3.9-8.4-3.2c-10.9,2.6-3.6,16.5-1.4,22.9l4.7-1l0.7,3.9&#xA;&#9;&#9;c8.1,13.7,24,20.7,39.6,17.4c12.2-2.4,21.9-11.8,24.6-24c-1.4,0.6-2.8,1.1-4.3,1.5c-4.2,1.1-2.8-3-6.8-5.4&#xA;&#9;&#9;C191.5,183,190.3,182.7,189.1,182.5z"/>
	<path class="st1_fishing-40" d="M171.1,214.2c-13.7-0.1-26.3-7.3-33.2-19.1c-0.1-0.2-0.2-0.4-0.2-0.6l-0.4-2l-2.9,0.6&#xA;&#9;&#9;c-0.9,0.2-1.8-0.3-2.1-1.2c-0.3-0.8-0.7-1.8-1.1-2.9c-2.1-5.4-5-12.9-2.3-18c1.3-2.3,3.6-3.9,6.2-4.4c3.9-0.9,8,0.7,10.3,3.9&#xA;&#9;&#9;c1.2,1.9,2,3.9,2.4,6.1c0.3,1.2,0.6,2.5,0.8,3.8c0.9,4.2,1.7,8.6,4.6,11.4c3,2.8,6.8,4.6,10.9,5c2,0.3,2.3-0.2,3.5-2.9&#xA;&#9;&#9;c1.1-3,3.1-5.7,5.6-7.8c5.1-4,11.1-6.1,16.3-5.4c1.5,0.2,2.9,0.6,4.2,1.3c1.6,1,2.9,2.4,3.7,4.2c0.7,1.3,0.7,1.2,1.7,1&#xA;&#9;&#9;c1.4-0.4,2.7-0.8,4-1.4c0.6-0.3,1.4-0.1,1.9,0.3c0.5,0.4,0.8,1.2,0.6,1.8c-2.9,12.8-13.1,22.7-26,25.3&#xA;&#9;&#9;C176.6,213.9,173.9,214.2,171.1,214.2z M141.2,193.5c8,13.1,22.7,19.4,37.4,16.2c10.3-2.1,18.7-9.3,22.2-19.2&#xA;&#9;&#9;c-0.4,0.1-0.7,0.2-1,0.3c-3.8,0.9-5-1.3-5.8-2.8c-0.5-1.1-1.3-2.1-2.4-2.7c-0.8-0.5-1.8-0.8-2.8-0.9l0,0c-3.2-0.4-8.4,0.6-13.5,4.7&#xA;&#9;&#9;c-2,1.7-3.6,3.9-4.5,6.4c-1.2,2.6-2.5,5.6-7.3,5c-4.9-0.5-9.5-2.6-13.1-6c-3.6-3.6-4.6-8.7-5.6-13.3c-0.2-1.2-0.5-2.4-0.8-3.6&#xA;&#9;&#9;c-0.3-1.7-0.9-3.4-1.8-4.9c-1.5-2-4-3-6.5-2.5c-1.6,0.2-3,1.2-3.8,2.5c-1.9,3.6,0.8,10.4,2.5,14.9l0.6,1.5l3.2-0.7&#xA;&#9;&#9;c1-0.2,2,0.4,2.2,1.4c0,0,0,0,0,0L141.2,193.5z"/>
	<ellipse transform="matrix(0.9775 -0.2112 0.2112 0.9775 -33.2515 38.139)" class="st1_fishing-40" cx="162" cy="174.8" rx="3.2" ry="3.2"/>
	<circle class="st1_fishing-40" cx="192.6" cy="168.1" r="3.2"/>
	<path class="st1_fishing-40" d="M175.5,181.5c-1-0.1-1.8-0.9-1.7-1.9c0-0.9,0.8-1.7,1.7-1.7c1.3-0.1,2.5-0.3,3.8-0.6c-1.1-2.1-2.4-4.1-3.9-5.9&#xA;&#9;&#9;c-0.6-0.8-0.5-2,0.3-2.6c0.8-0.6,1.9-0.5,2.5,0.2c2.5,3,5.4,7.1,4.9,9.5c-0.2,0.8-0.7,1.4-1.4,1.8&#xA;&#9;&#9;C179.7,181,177.7,181.4,175.5,181.5L175.5,181.5z M179.4,177.8L179.4,177.8z"/>
	<path class="st1_fishing-40" d="M151.1,169.9c-2,0-3.7-1.7-3.7-3.7c0-1.6,1.1-3.1,2.7-3.5l15-4c1.9-0.6,4,0.5,4.6,2.4c0.6,1.9-0.5,4-2.4,4.6&#xA;&#9;&#9;c-0.1,0-0.2,0.1-0.3,0.1l-15,3.9C151.8,169.8,151.4,169.8,151.1,169.9z"/>
	<path class="st1_fishing-40" d="M178.3,163.4c-2,0-3.7-1.7-3.7-3.7c0-1.6,1.1-3,2.6-3.5l14.9-4.4c2-0.6,4,0.6,4.5,2.5c0.5,1.9-0.5,3.9-2.4,4.5&#xA;&#9;&#9;l-14.9,4.4C179,163.3,178.7,163.4,178.3,163.4z"/>
	<path class="st0_fishing-40" d="M140.7,177.6c0,0-9.6-4-12.5,4.5s4.2,20.2,17.3,13.5L140.7,177.6z"/>
	<path class="st1_fishing-40" d="M138.1,199.4c-2.9,0-5.7-1-7.8-2.9c-4.2-3.8-5.7-9.7-3.9-15.1c0.8-2.6,2.6-4.7,5-5.8c4.5-2,9.8,0.1,10,0.2&#xA;&#9;&#9;c0.5,0.2,0.9,0.7,1.1,1.2l4.7,18c0.2,0.8-0.2,1.7-0.9,2.1C143.8,198.6,141,199.3,138.1,199.4z M135.7,178.5c-1,0-2,0.2-2.9,0.6&#xA;&#9;&#9;c-1.5,0.7-2.6,2-3,3.6c-1.3,3.9-0.2,8.3,2.8,11.1c2.7,2.3,6.4,2.6,10.6,0.8l-4.1-15.6C138,178.7,136.9,178.5,135.7,178.5z"/>
	<path class="st4_fishing-40" d="M178.6,193.7l11.8-2.7c0,0,1,9.9-3.7,11.6S178.6,193.7,178.6,193.7z"/>
	<path class="st1_fishing-40" d="M185.6,204.6c-0.8,0-1.6-0.2-2.3-0.6c-4-2-6.3-9-6.5-9.8c-0.1-0.5-0.1-1,0.2-1.5c0.3-0.4,0.7-0.8,1.2-0.9&#xA;&#9;&#9;l11.8-2.7c1-0.2,2,0.4,2.2,1.4c0,0.1,0,0.2,0,0.2c0.1,1.2,1,11.4-4.9,13.5C186.7,204.5,186.2,204.6,185.6,204.6z M181,195&#xA;&#9;&#9;c0.9,2.3,2.4,4.9,3.9,5.7c0.3,0.2,0.7,0.2,1.1,0.1c2-0.7,2.6-4.6,2.6-7.6L181,195z"/>
	<path class="st2_fishing-40 targetColor" d="M132,133.8l39.5-15.7c8.2-3.3,17.5,0.7,20.8,8.9l5.6,14.1l0,0l-69.2,27.5l0,0l-5.6-14.1&#xA;&#9;&#9;C119.8,146.3,123.8,137,132,133.8L132,133.8z" style="fill: rgb(104, 225, 253);"/>
	<path class="st1_fishing-40" d="M128.7,170.5c-0.8,0-1.4-0.4-1.7-1.1l-4.2-10.6c-4.4-11.1,1-23.6,12.1-28.1l0,0l32.4-12.9&#xA;&#9;&#9;c11.1-4.4,23.6,1,28.1,12.1l4.2,10.6c0.4,0.9-0.1,2-1,2.4l-69.2,27.5C129.1,170.5,128.9,170.5,128.7,170.5z M136.2,134.1&#xA;&#9;&#9;c-9.2,3.7-13.7,14.1-10,23.3l3.6,8.9l65.8-26.2l-3.6-8.9c-3.7-9.2-14.1-13.6-23.3-10L136.2,134.1z"/>
	<path class="st1_fishing-40" d="M128.7,170.5c-1-0.1-1.8-1-1.7-2c0-0.7,0.4-1.2,1-1.5l89.4-35.6c0.9-0.4,2,0.1,2.4,1s-0.1,2-1,2.4l0,0&#xA;&#9;&#9;l-89.4,35.6C129.1,170.5,128.9,170.5,128.7,170.5z"/>
	<path class="st2_fishing-40 targetColor" d="M219.3,227c-9.4,8.3-26.3,21.9-36,27c-4.8-4.2-13.1-18-18.7-31.2c-2.8-6.7-10.5-9.9-17.2-7.1&#xA;&#9;&#9;s-9.9,10.5-7.1,17.2c2.8,6.5,5.9,12.9,9.4,19.2c8.6,15.2,16.5,23.9,25,27.4c2.7,1.1,5.5,1.7,8.4,1.7c2.7,0,5.3-0.5,7.8-1.6&#xA;&#9;&#9;c13.9-5.8,36.2-24.5,43.8-31.1C229.4,241.5,224.4,234.3,219.3,227z" style="fill: rgb(104, 225, 253);"/>
	<path class="st1_fishing-40" d="M183.2,283c-3.1,0-6.2-0.7-9.1-1.9c-8.9-3.7-17.1-12.6-25.9-28.2c-3.5-6.2-6.7-12.7-9.5-19.3&#xA;&#9;&#9;c-3.2-7.7,0.5-16.4,8.1-19.6s16.4,0.5,19.6,8.1c5,12,12.5,24.8,17.3,29.7c9.8-5.5,25.8-18.5,34.4-26.1c0.8-0.7,2-0.6,2.6,0.2&#xA;&#9;&#9;c0,0,0.1,0.1,0.1,0.1c4.8,6.9,10,14.2,15.4,21.4c0.6,0.8,0.5,1.9-0.3,2.5c-8.7,7.5-30.3,25.6-44.3,31.4&#xA;&#9;&#9;C189,282.4,186.1,283,183.2,283z M152.5,216.5c-1.5,0-3,0.3-4.3,0.9c-5.8,2.4-8.5,9-6.2,14.8c2.8,6.5,5.8,12.8,9.3,18.9&#xA;&#9;&#9;c8.4,14.8,16,23.3,24.1,26.7c4.7,2.1,10.1,2.1,14.8,0.1c13-5.5,34.1-22.8,42-29.6c-4.7-6.2-9.1-12.5-13.3-18.4&#xA;&#9;&#9;c-9.5,8.2-25.4,20.9-34.8,25.9c-0.7,0.4-1.5,0.3-2.1-0.2c-5.1-4.4-13.5-18.5-19.1-31.9C161.2,219.3,157.1,216.5,152.5,216.5&#xA;&#9;&#9;L152.5,216.5z"/>
	<path class="st1_fishing-40" d="M227.4,259.4l-0.2-0.1c-1.1-0.4-1.9-1.2-2.2-2.3c-0.5-1.9,0.9-3.9,1.7-5.5c0.6-1.3,1.3-2.6,2-3.9&#xA;&#9;&#9;c2-3.9,4-7.7,6.1-11.5c2.9-5.2,5.8-10.4,8.8-15.6c3.7-6.2,7.5-12.4,11.4-18.4c4.4-6.8,9-13.6,13.7-20.2c0.9-1.3,1.8-2.6,2.8-3.8&#xA;&#9;&#9;c26.5-36.4,74.5-80.8,137.9-101c0.8-0.2,1.6,0.2,1.9,0.9c0.3,0.8-0.2,1.6-0.9,1.8c0,0,0,0,0,0c-65.1,21.7-110.1,69.2-136.3,105.2&#xA;&#9;&#9;l-2.1,2.9c-4.7,6.5-9.1,13.2-13.3,20c-3.7,5.9-7.2,11.9-10.6,18c-2.7,4.9-5.3,9.9-7.8,15c-1.8,3.6-3.5,7.3-5.2,11&#xA;&#9;&#9;c-0.5,1.1-1,2.1-1.4,3.3c-0.3,1.2-0.9,2.3-1.7,3.2C230.7,259.6,228.9,260,227.4,259.4z"/>
	<path class="st0_fishing-40" d="M221,229.5c0,0,25-25,31-15.4s7,17.6,4.5,19.9s-10,11.7-14.4,4.8l-9,7.5L221,229.5z"/>
	<path class="st1_fishing-40" d="M233.1,248.1h-0.2c-0.5-0.1-1-0.3-1.3-0.7l-12.1-16.7c-0.5-0.7-0.4-1.7,0.2-2.4c2-2,19.4-19.1,29-18.1&#xA;&#9;&#9;c2,0.2,3.8,1.3,4.8,3c6.1,9.6,7.9,19,4.1,22.2c-0.4,0.3-0.8,0.8-1.4,1.3c-2.7,2.7-6.8,6.8-11,6.4c-1.3-0.1-2.6-0.7-3.5-1.7&#xA;&#9;&#9;l-7.6,6.3C233.9,247.9,233.5,248.1,233.1,248.1z M223.4,229.7l10,13.8l7.5-6.3c0.8-0.7,2-0.5,2.6,0.2c0,0.1,0.1,0.1,0.1,0.2&#xA;&#9;&#9;c0.9,1.5,1.8,1.6,2.1,1.6c2.5,0.3,6-3.3,7.9-5.3c0.6-0.6,1.1-1.1,1.6-1.5c1.4-1.3,1.1-8.2-4.8-17.5c-0.4-0.8-1.2-1.2-2.1-1.3&#xA;&#9;&#9;C242.1,213.1,229.2,224.2,223.4,229.7L223.4,229.7z"/>
	<path class="st5_fishing-40" d="M166.4,391.1l-22-17.7l-18.2,26.5c0,0,13.5,16.8,15.4,17.6s27.5,6.6,26.6,3.3s-15.7-10.4-15.7-10.4&#xA;&#9;&#9;L166.4,391.1z"/>
	<path class="st1_fishing-40" d="M165.1,423.6c-8.1,0-24.1-4.3-24.3-4.4c-1.9-0.8-9.8-10.3-16.1-18.1c-0.5-0.6-0.5-1.5-0.1-2.2l18.1-26.5&#xA;&#9;&#9;c0.3-0.4,0.7-0.7,1.2-0.8c0.5-0.1,1,0.1,1.4,0.4l22,17.7c0.8,0.6,0.9,1.7,0.3,2.5l-12.6,17.5c5.9,2.9,13.9,7.5,14.7,10.7&#xA;&#9;&#9;c0.2,0.9-0.1,1.8-0.8,2.4C168.5,423.3,167.1,423.6,165.1,423.6z M128.5,399.8c6,7.4,12.6,15.2,13.9,16c2.2,0.9,17.4,4.1,22.9,4.1&#xA;&#9;&#9;c-2.3-1.9-7.7-5.2-13.6-8c-0.9-0.4-1.3-1.6-0.8-2.5c0-0.1,0.1-0.2,0.2-0.3l12.8-17.8L144.7,376L128.5,399.8z"/>
	<path class="st5_fishing-40" d="M270.1,378l-27.6,7.1l10.6,33.7c0,0,38.7-11.5,39.6-13.6s-19.4-3.5-19.4-3.5L270.1,378z"/>
	<path class="st1_fishing-40" d="M253,420.7c-0.8,0-1.5-0.5-1.8-1.3l-10.6-33.7c-0.3-1,0.2-2,1.2-2.3c0,0,0,0,0.1,0l27.6-7.1&#xA;&#9;&#9;c1-0.3,2,0.3,2.2,1.3c0,0.1,0,0.2,0,0.3l2.9,22.2c17.6,1.3,18.8,3.2,19.3,3.9c0.4,0.6,0.4,1.3,0.2,2c-0.4,0.9-1.1,2.9-40.7,14.7&#xA;&#9;&#9;C253.3,420.6,253.2,420.7,253,420.7z M244.8,386.4l9.4,30.1c12-3.6,27.7-8.6,34.2-11.2c-5.1-0.9-10.2-1.5-15.4-1.8&#xA;&#9;&#9;c-0.9-0.1-1.6-0.7-1.7-1.6l-2.8-21.7L244.8,386.4z"/>
	<path class="st1_fishing-40" d="M393,260.8c-1,0-1.8-0.8-1.9-1.8c0-0.5,0.2-1,0.6-1.4c0.2-0.2,19.3-17.7,22.1-41.4&#xA;&#9;&#9;c2.2-18.2-0.8-21.2-11.8-32.2c-3.2-3.2-7.2-7.2-11.9-12.4c-21.1-23.5,16.5-91,18.1-93.9c0.6-0.8,1.7-1.1,2.5-0.5&#xA;&#9;&#9;c0.8,0.5,1,1.5,0.7,2.3c-6.5,11.9-12.1,24.3-16.7,37.1c-6.3,17.9-11.8,41.4-1.8,52.6c4.6,5.1,8.6,9.1,11.8,12.3&#xA;&#9;&#9;c11.4,11.4,15.3,15.3,12.9,35.2c-3,25.1-22.5,43-23.3,43.7C393.9,260.6,393.5,260.8,393,260.8z"/>
	<path class="st6_fishing-40" d="M416.1,275.4c0,0,7.8,12.1,6,24.6l-13.5-6.8L416.1,275.4z"/>
	<path class="st1_fishing-40" d="M422.1,301.9c-0.3,0-0.6-0.1-0.8-0.2l-13.5-6.8c-0.9-0.4-1.3-1.5-0.9-2.4l7.5-17.9c0.3-0.6,0.9-1.1,1.5-1.1&#xA;&#9;&#9;c0.7-0.1,1.3,0.3,1.7,0.8c0.3,0.5,8.2,12.9,6.3,25.9c-0.1,0.6-0.5,1.1-1,1.4C422.7,301.8,422.4,301.9,422.1,301.9z M411,292.4&#xA;&#9;&#9;l9.6,4.8c0.3-7-2.4-13.8-4.2-17.5L411,292.4z"/>
	<path class="st6_fishing-40" d="M376.5,270.7c-0.4-0.8-11.4-4.2-11.4-4.2s5-8,18.5-4.1L376.5,270.7z"/>
	<path class="st1_fishing-40" d="M376.5,272.5h-0.2c-0.4-0.1-0.8-0.2-1.1-0.5c-3.5-1.4-7-2.7-10.6-3.8c-1-0.3-1.5-1.3-1.2-2.3&#xA;&#9;&#9;c0-0.1,0.1-0.3,0.2-0.4c0.2-0.4,5.9-9.2,20.5-4.9c1,0.3,1.6,1.3,1.3,2.3c-0.1,0.3-0.2,0.5-0.4,0.7l-7.1,8.4&#xA;&#9;&#9;C377.5,272.3,377,272.6,376.5,272.5z M368.4,265.6c2.6,0.8,5.1,1.7,7.6,2.8l4.1-4.9C374.1,262.4,370.4,264.1,368.4,265.6z"/>
	<path class="st6_fishing-40" d="M410.1,239.3c0,0-28.1,11.5-34.7,29.4s7.1,45,7.1,45s28.1-11.5,34.7-29.4S410.1,239.3,410.1,239.3z"/>
	<path class="st1_fishing-40" d="M382.5,315.5c-0.7,0-1.3-0.4-1.6-1c-0.6-1.1-14.1-27.9-7.2-46.4s34.6-30,35.8-30.5c0.9-0.4,1.9,0,2.3,0.9&#xA;&#9;&#9;c0.6,1.1,14.1,27.9,7.2,46.4s-34.6,30-35.8,30.5C382.9,315.5,382.7,315.5,382.5,315.5z M409.2,241.7c-5.9,2.7-26.7,13.1-32.1,27.6&#xA;&#9;&#9;c-5.4,14.6,3.6,36,6.3,41.9c5.9-2.7,26.7-13.1,32.1-27.7S411.9,247.7,409.2,241.7L409.2,241.7z"/>
	<path class="st1_fishing-40" d="M410.9,268c-4.4,0.1-8.8-0.9-12.8-2.8c-9.9-4.9-12.1-11.6-12.2-11.9c-0.4-1,0.1-2,1.1-2.4s2,0.1,2.4,1.1&#xA;&#9;&#9;c0,0.1,0.1,0.1,0.1,0.2c0.1,0.2,1.9,5.6,10.3,9.7c8.5,4.2,18.1,1.6,18.1,1.6c1-0.3,2,0.2,2.3,1.2s-0.2,2-1.2,2.3c0,0-0.1,0-0.1,0&#xA;&#9;&#9;C416.3,267.7,413.6,268,410.9,268z"/>
	<path class="st1_fishing-40" d="M401.3,260.8c-1,0-1.8-0.9-1.8-1.9c0-0.7,0.4-1.3,1-1.6l9.3-5c0.9-0.5,2-0.1,2.5,0.8c0.5,0.9,0.1,2-0.8,2.5&#xA;&#9;&#9;l0,0l-9.3,5C401.9,260.7,401.6,260.8,401.3,260.8z"/>
	<path class="st1_fishing-40" d="M407.8,263.2c-0.8,0-1.4-0.5-1.7-1.2l-3.8-9.8c-0.4-0.9,0.1-2,1-2.4c0.9-0.4,2,0.1,2.4,1c0,0,0,0.1,0,0.1&#xA;&#9;&#9;l3.8,9.8c0.4,0.9-0.1,2-1,2.4c0,0,0,0,0,0C408.3,263.2,408.1,263.2,407.8,263.2z"/>
	<path class="st6_fishing-40" d="M386.3,309.6c0,0,9.4,23.3,9,24.9s-1.4,0.8-2.8-0.4s-7.8-6.1-13.8-8.4s-15.5-2.8-17.7-3.4s-1.8-2.1,0.5-3.3&#xA;&#9;&#9;s21.5-10.6,21.5-10.6L386.3,309.6z"/>
	<path class="st1_fishing-40" d="M394.5,337.2c-1.2,0-2.2-0.9-3.2-1.7c-1.7-1.4-7.9-6-13.3-8.1c-3.9-1.5-9.6-2.2-13.5-2.7&#xA;&#9;&#9;c-1.4-0.1-2.8-0.3-4.1-0.6c-2.2-0.6-2.7-1.9-2.8-2.7c-0.1-1,0.2-2.6,2.8-4c2.2-1.3,20.8-10.3,21.6-10.6c0.5-0.2,1-0.2,1.4-0.1&#xA;&#9;&#9;l3.4,1.3c0.5,0.2,0.9,0.5,1.1,1c9.6,23.8,9.2,25.3,9.1,26c-0.1,1-0.8,1.8-1.8,2.2C395,337.2,394.8,337.3,394.5,337.2z M362.1,320.7&#xA;&#9;&#9;c0.7,0.1,1.8,0.2,2.9,0.4c4,0.5,10,1.2,14.3,2.9c4.8,2.1,9.4,4.8,13.5,8c-1.4-4.2-4.7-12.9-7.9-21l-1.9-0.7&#xA;&#9;&#9;c-6.8,3.3-19,9.2-20.7,10.2L362.1,320.7z"/>
</g>
<g id="splash_fishing-40">
	<ellipse class="st2_fishing-40 targetColor" cx="370.6" cy="404.3" rx="66.1" ry="18" style="fill: rgb(104, 225, 253);"/>
	<path class="st1_fishing-40" d="M370.6,424.1c-32.9,0-67.9-6.9-67.9-19.8s35-19.8,68-19.8s68,6.9,68,19.8S403.5,424.1,370.6,424.1z&#xA;&#9;&#9; M370.6,388.2c-37.9,0-64.3,8.5-64.3,16.1s26.4,16.1,64.3,16.1s64.3-8.5,64.3-16.1S408.5,388.2,370.6,388.2z"/>
	<path class="st2_fishing-40 targetColor" d="M351.7,402.8c4.5-3.3,7.1-8.6,6.8-14.1c-0.4-8.9-2.3-12.8-4.7-18.9c-0.7-1.8-1.5-4.2-0.1-5.6&#xA;&#9;&#9;c1-0.9,2.5-1.1,3.7-0.5c1.2,0.6,2.2,1.6,2.9,2.7c1.7,2.3,3.5,4.7,5,7.2l1.5-4.9c0.4-1.6,1.1-3.1,2.2-4.3c1.2-1.1,3.2-1.6,4.4-0.5&#xA;&#9;&#9;c0.7,0.7,1.1,1.7,1.3,2.7c0.4,1.8,0.3,5.8,1.9,7c0.6,0.4,1.5,0.4,2.1,0.1c0.7-0.4,1.2-0.8,1.7-1.4c1.9-2,3.7-4,6.4-5&#xA;&#9;&#9;c2.3-1,5-0.9,7.2,0.2c1.2,0.6,1.9,1.6,1.4,2.9c-1.5,4.2-6.4,6.2-9.2,9.4c-5.9,6.8-10.5,20.6-2.9,26.9" style="fill: rgb(104, 225, 253);"/>
	<path class="st1_fishing-40" d="M383.2,408.3c-0.4,0-0.8-0.1-1.2-0.4c-2.7-2.3-4.4-5.7-4.6-9.2c-0.6-7.5,3.3-15.7,7.3-20.2&#xA;&#9;&#9;c1.2-1.3,2.5-2.4,3.9-3.5c2.1-1.6,4.1-3.2,4.9-5.3c0-0.1,0.1-0.2,0-0.2c-0.1-0.2-0.3-0.3-0.6-0.4c-1.8-0.9-3.9-0.9-5.7-0.1&#xA;&#9;&#9;c-2.3,0.9-3.9,2.7-5.7,4.6c-0.6,0.7-1.4,1.4-2.3,1.8c-1.3,0.7-2.8,0.5-4-0.3c-1.8-1.4-2.1-4.1-2.3-6.4c0-0.6-0.1-1.1-0.2-1.7&#xA;&#9;&#9;c-0.1-0.6-0.3-1.2-0.7-1.7c-0.4-0.3-1.4-0.1-1.9,0.5c-0.8,1-1.4,2.3-1.7,3.5l-1.6,4.9c-0.2,0.7-0.8,1.2-1.5,1.3&#xA;&#9;&#9;c-0.7,0.1-1.4-0.3-1.8-0.9c-1.5-2.4-3.1-4.8-4.9-7.1c-0.6-0.9-1.3-1.6-2.2-2.1c-0.5-0.3-1.1-0.3-1.6,0.1c-0.7,0.7,0.2,2.9,0.5,3.6&#xA;&#9;&#9;l0.6,1.5c2.2,5.3,3.9,9.5,4.2,18c0.3,6.2-2.6,12.1-7.7,15.8c-0.9,0.5-2,0.1-2.5-0.8c-0.4-0.8-0.2-1.7,0.5-2.3l0,0&#xA;&#9;&#9;c4-2.9,6.2-7.6,6-12.5c-0.3-7.8-1.9-11.5-4-16.7l-0.6-1.5c-0.6-1.5-2.1-5.1,0.3-7.5c1.6-1.5,3.9-1.8,5.8-0.8&#xA;&#9;&#9;c1.4,0.8,2.7,1.9,3.6,3.2c1,1.3,2,2.6,2.9,4l0.4-1.2c0.4-1.9,1.3-3.6,2.6-5.1c1.7-1.7,4.8-2.4,6.9-0.6c1,1,1.7,2.3,1.9,3.7&#xA;&#9;&#9;c0.1,0.7,0.2,1.4,0.3,2.1c0.1,1,0.4,3.4,0.9,3.8c0,0,0.1,0,0.2-0.1c0.4-0.3,0.8-0.6,1.2-1c2-2.1,4-4.3,7-5.5c2.8-1.2,6-1.1,8.8,0.3&#xA;&#9;&#9;c2.2,1.2,3,3.1,2.2,5.2c-1.1,3.1-3.8,5.2-6.1,7c-1.2,0.9-2.4,1.9-3.4,3c-3.6,4.1-6.9,11.4-6.4,17.5c0.1,2.6,1.3,5,3.2,6.7&#xA;&#9;&#9;c0.8,0.6,0.9,1.8,0.3,2.6c0,0,0,0,0,0C384.2,408.1,383.8,408.3,383.2,408.3z"/>
	<path class="st7_fishing-40" d="M338.6,370.6c-0.7,0-1.4-0.4-1.7-1.1c-4-9.4-15.6-20.4-19.6-22.9c-0.9-0.6-1.1-1.7-0.5-2.5&#xA;&#9;&#9;c0.6-0.9,1.7-1.1,2.5-0.6c4.9,3.1,16.8,14.7,21,24.6c0.4,0.9,0,2-1,2.4C339,370.5,338.8,370.6,338.6,370.6L338.6,370.6z"/>
	<path class="st7_fishing-40" d="M408.6,375.2c-1,0-1.8-0.8-1.8-1.8c0-0.5,0.2-0.9,0.5-1.2c0.4-0.4,9.1-9.8,17.5-10.7c1-0.1,1.9,0.7,1.9,1.7&#xA;&#9;&#9;c0,0.9-0.6,1.7-1.5,1.9c-7,0.8-15.1,9.5-15.2,9.6C409.6,375,409.1,375.2,408.6,375.2z"/>
	<path class="st7_fishing-40" d="M344.1,349.4H344c-1,0-1.8-0.9-1.8-1.9c-0.1-4.7-1.6-9.2-4.5-12.9c-0.6-0.8-0.5-2,0.3-2.6&#xA;&#9;&#9;c0.8-0.6,2-0.5,2.6,0.4c3.4,4.4,5.2,9.8,5.2,15.3C345.9,348.6,345.1,349.4,344.1,349.4z"/>
</g>
<g id="bucket_fishing-40">
	<path class="st1_fishing-40" d="M115.8,388.1H67.4c-1,0-1.8-0.8-1.8-1.8v-18.7c0-14.4,11.7-26,26-26s26,11.7,26,26l0,0v18.7&#xA;&#9;&#9;C117.6,387.3,116.8,388.1,115.8,388.1z M69.2,384.4h44.7v-16.9c0-12.3-10-22.3-22.4-22.4l0,0c-12.3,0-22.3,10-22.3,22.4V384.4z"/>
	<path class="st8_fishing-40" d="M70.2,367.2h42.8c1.6,0,2.8,1.3,2.8,2.8v47.9c0,1.6-1.3,2.8-2.8,2.8H70.2c-1.6,0-2.8-1.3-2.8-2.8V370&#xA;&#9;&#9;C67.4,368.5,68.6,367.2,70.2,367.2z"/>
	<path class="st1_fishing-40" d="M110.6,422.6h-38c-3.9,0-7-3.1-7-7v-43.2c0-3.9,3.1-7,7-7h38c3.9,0,7,3.1,7,7v43.2&#xA;&#9;&#9;C117.6,419.4,114.5,422.6,110.6,422.6C110.6,422.6,110.6,422.6,110.6,422.6z M72.6,369c-1.8,0-3.3,1.5-3.3,3.3v43.2&#xA;&#9;&#9;c0,1.8,1.5,3.3,3.3,3.3h38c1.8,0,3.3-1.5,3.3-3.3v-43.1c0-1.8-1.5-3.4-3.3-3.4c0,0,0,0,0,0H72.6z"/>
	<path class="st8_fishing-40" d="M65.4,377.1h52.3c1.2,0,2.2,1,2.2,2.2v5.5c0,1.2-1,2.2-2.2,2.2H65.4c-1.2,0-2.2-1-2.2-2.2v-5.5&#xA;&#9;&#9;C63.2,378.1,64.2,377.1,65.4,377.1z"/>
	<path class="st1_fishing-40" d="M115.8,388.8H67.3c-3.3,0-5.9-2.6-5.9-5.9v-1.8c0-3.3,2.6-5.9,5.9-5.9h48.6c3.3,0,5.9,2.6,5.9,5.9l0,0v1.8&#xA;&#9;&#9;C121.7,386.2,119.1,388.8,115.8,388.8C115.8,388.8,115.8,388.8,115.8,388.8z M67.3,378.9c-1.2,0-2.2,1-2.2,2.2v1.8&#xA;&#9;&#9;c0,1.2,1,2.2,2.2,2.2h48.6c1.2,0,2.2-1,2.2-2.2v-1.8c0-1.2-1-2.2-2.2-2.2H67.3z"/>
</g>
</svg>